<svg xmlns="http://www.w3.org/2000/svg"  viewBox="0 0 24 24" width="24px" height="24px"><path d="M 12 5 C 11.793125 5 11.588245 5.0109424 11.386719 5.0332031 C 5.3056544 5.3759363 0.91429494 10.636939 0.73046875 10.869141 L 0.2109375 11.5 L 0.73046875 12.130859 C 0.89046875 12.330859 4.1098437 16.210781 8.8398438 17.550781 C 8.9067369 17.426222 8.9733442 17.279569 9.0410156 17.144531 C 9.0442354 17.146504 9.0475578 17.148425 9.0507812 17.150391 C 9.0968163 17.058321 9.1384227 16.953588 9.1835938 16.857422 C 9.2369224 16.744533 9.2848934 16.634656 9.3359375 16.517578 C 9.4191532 16.325635 9.4914079 16.136066 9.5644531 15.9375 C 9.5940207 15.856836 9.6331056 15.780371 9.6601562 15.699219 C 9.6561232 15.698182 9.6524684 15.696354 9.6484375 15.695312 C 9.6988095 15.546332 9.7597399 15.398205 9.8007812 15.25 C 8.7107813 14.45 8 13.07 8 11.5 C 8 9.01 9.79 7 12 7 C 14.21 7 16 9.01 16 11.5 C 16 13.17 15.2 14.620625 14 15.390625 L 14 15.769531 L 14 17.630859 L 14 17.820312 C 19.36 16.850313 23.099531 12.340859 23.269531 12.130859 L 23.789062 11.5 L 23.269531 10.869141 C 23.085705 10.636939 18.694346 5.3759363 12.613281 5.0332031 C 12.411755 5.0109424 12.206875 5 12 5 z M 12 8 L 9 12 L 10.960938 13.960938 C 10.784754 16.416694 10 18 10 18 L 11 18 L 11 20 L 13 20 L 13 17 L 13 14 L 15 12 L 12 8 z M 6.65625 8.5625 C 6.2402624 9.4464915 6 10.44263 6 11.5 C 6 12.564905 6.2481059 13.564901 6.6699219 14.453125 C 4.926686 13.460985 3.5777942 12.231601 2.859375 11.5 C 3.5727149 10.77069 4.9204124 9.5516333 6.65625 8.5625 z M 17.34375 8.5625 C 19.079588 9.5516333 20.427285 10.77069 21.140625 11.5 C 20.428805 12.230886 19.086355 13.461073 17.345703 14.449219 C 17.764011 13.562234 18 12.56005 18 11.5 C 18 10.44263 17.759738 9.4464915 17.34375 8.5625 z M 12 11 L 13 12 L 12 13 L 11 12 L 12 11 z"/></svg>